<?xml version="1.0" standalone="no"?>
<!DOCTYPE svg PUBLIC "-//W3C//DTD SVG 20010904//EN"
 "http://www.w3.org/TR/2001/REC-SVG-20010904/DTD/svg10.dtd">
<svg version="1.0" xmlns="http://www.w3.org/2000/svg"
 width="244.000000pt" height="244.000000pt" viewBox="0 0 244.000000 244.000000"
 preserveAspectRatio="xMidYMid meet">

<g transform="translate(0.000000,244.000000) scale(0.100000,-0.100000)"
fill="#000000" stroke="none">
<path d="M1149 2436 c-2 -2 -47 -9 -99 -15 -162 -19 -346 -88 -495 -186 -117
-76 -208 -163 -335 -322 -12 -15 -100 -174 -100 -182 -1 -3 -9 -24 -20 -46
-11 -22 -19 -47 -20 -55 0 -9 -4 -20 -9 -25 -15 -16 -38 -125 -62 -297 -10
-71 -10 -105 1 -175 26 -181 46 -279 60 -298 4 -5 10 -23 14 -39 4 -17 16 -42
27 -57 10 -15 19 -31 19 -36 0 -14 39 -83 96 -169 53 -81 169 -208 232 -255
18 -13 43 -32 55 -42 12 -11 36 -26 52 -34 17 -9 32 -19 35 -23 10 -13 195
-97 250 -113 138 -41 188 -47 380 -47 105 0 189 4 186 9 -3 4 6 6 19 3 14 -2
37 0 53 6 15 6 57 18 95 28 37 11 67 22 67 26 0 5 7 8 17 8 15 0 162 68 173
80 3 3 22 16 43 28 43 25 38 21 135 102 44 37 70 66 66 73 -4 7 -4 9 0 5 9 -8
46 22 46 38 0 7 6 14 14 17 32 13 216 327 216 369 0 7 4 18 9 24 21 22 64 270
65 379 1 121 -28 294 -66 400 -38 102 -108 244 -150 300 -76 102 -202 228
-303 303 -134 99 -346 179 -549 207 -105 14 -208 20 -217 11z m141 -211 c0 -8
-9 -20 -20 -28 -19 -13 -22 -30 -20 -104 1 -21 6 -23 66 -23 37 0 63 -4 59 -9
-3 -5 2 -16 10 -24 12 -12 15 -43 15 -145 0 -72 -3 -137 -6 -146 -5 -13 -31
-15 -165 -15 l-159 0 0 112 c0 62 -3 129 -6 150 -5 30 -4 37 10 37 9 0 16 8
16 20 0 18 7 20 60 20 58 0 60 1 62 28 3 57 -4 86 -25 103 -18 14 -20 21 -11
36 6 10 21 23 34 30 20 10 28 8 52 -8 15 -11 28 -27 28 -34z m-216 -154 c3 -5
-1 -12 -10 -15 -22 -9 -24 -8 -24 9 0 16 25 21 34 6z m346 -7 c0 -9 -5 -14
-12 -12 -18 6 -21 28 -4 28 9 0 16 -7 16 -16z m-680 -119 c17 -25 29 -49 25
-54 -3 -5 -1 -13 5 -16 14 -9 7 -31 -45 -140 -23 -49 -48 -106 -55 -127 -9
-23 -18 -34 -27 -31 -22 9 -24 2 93 247 13 28 20 52 16 55 -9 6 -52 93 -52
104 0 15 10 5 40 -38z m297 -7 c-3 -7 -5 -2 -5 12 0 14 2 19 5 13 2 -7 2 -19
0 -25z m723 -184 c33 -70 60 -130 60 -134 0 -5 6 -10 13 -13 9 -3 9 -7 -2 -20
-16 -21 -31 -22 -31 -3 0 7 -12 40 -26 72 -49 111 -75 169 -85 187 -9 16 -5
37 7 37 2 0 31 -57 64 -126z m-975 17 c-3 -6 -11 -11 -17 -11 -6 0 -6 6 2 15
14 17 26 13 15 -4z m55 -6 c14 -19 14 -19 -2 -6 -10 7 -18 18 -18 24 0 6 1 8
3 6 1 -2 9 -13 17 -24z m858 6 c3 -8 -1 -12 -9 -9 -7 2 -15 10 -17 17 -3 8 1
12 9 9 7 -2 15 -10 17 -17z m92 9 c0 -5 -5 -10 -11 -10 -5 0 -7 5 -4 10 3 6 8
10 11 10 2 0 4 -4 4 -10z m-962 -59 c6 -9 20 -32 29 -51 22 -46 20 -45 38 -30
9 8 15 8 15 2 0 -6 -4 -14 -10 -17 -5 -3 -10 -16 -11 -28 0 -12 -16 -49 -34
-82 -62 -108 -67 -135 -25 -135 23 0 27 -15 5 -24 -22 -8 -19 -26 4 -26 24 0
32 -11 22 -28 -6 -10 -11 -9 -21 3 -17 20 -36 19 -45 -2 -9 -26 -35 -151 -35
-173 0 -12 5 -17 14 -14 19 7 29 -41 14 -66 -15 -23 -36 -23 -52 2 -13 21 0
36 16 20 14 -14 38 -16 38 -3 0 5 -10 13 -23 18 -12 4 -78 46 -146 93 l-123
85 5 77 c6 73 16 146 39 267 8 44 12 51 20 37 7 -12 5 -59 -7 -149 -27 -211
-35 -186 75 -266 l95 -69 17 61 c22 79 43 197 40 220 -1 10 3 15 8 12 6 -3 10
-1 10 5 0 7 -7 9 -16 6 -11 -4 -29 6 -54 30 -32 31 -38 44 -38 80 -1 51 13 59
22 12 9 -44 53 -88 88 -88 17 0 28 5 28 14 0 7 7 19 16 27 11 9 14 22 9 48 -4
20 -8 41 -9 48 -3 21 -40 63 -56 63 -24 0 -43 17 -37 33 7 18 57 11 75 -12z
m881 -7 c-6 -8 -19 -14 -29 -14 -21 0 -45 -26 -60 -64 -12 -33 -7 -44 14 -27
10 8 16 9 21 1 8 -13 42 -13 50 1 4 6 -2 13 -14 16 -23 6 -27 18 -11 28 10 6
49 -31 50 -46 0 -8 -40 -22 -60 -20 -10 1 -7 -6 9 -19 17 -14 21 -24 14 -31
-12 -12 -53 9 -53 27 0 7 -7 14 -15 18 -20 7 -19 -15 3 -53 10 -19 25 -31 38
-31 33 0 73 37 80 76 6 31 23 56 25 37 9 -67 6 -75 -34 -112 -22 -20 -46 -35
-53 -35 -9 1 -11 -8 -8 -30 11 -59 35 -171 44 -202 6 -17 10 -38 10 -47 0 -9
4 -17 10 -17 12 0 172 113 186 132 7 9 7 30 -2 68 -6 30 -12 51 -13 46 0 -5
-8 -3 -16 4 -17 14 -20 40 -5 40 6 0 10 -7 10 -16 0 -8 4 -13 9 -10 10 7 4 87
-11 138 -11 39 -3 97 12 82 15 -16 61 -375 50 -389 -6 -7 -29 -26 -53 -41
-206 -141 -250 -178 -241 -206 8 -27 -13 -22 -32 7 -13 20 -19 23 -30 14 -20
-17 -16 2 5 29 24 28 29 28 33 0 3 -22 3 -22 22 -2 18 17 18 19 3 22 -20 4
-21 11 -3 35 14 18 15 18 24 0 21 -37 25 0 8 80 -18 83 -50 147 -74 147 -10 0
-10 3 2 15 8 8 19 15 25 15 16 0 7 58 -12 81 -10 11 -17 25 -17 33 0 7 -8 24
-18 37 -11 13 -22 36 -25 51 -4 14 -10 34 -13 43 -6 14 -3 16 14 10 17 -5 22
-2 22 12 0 27 47 87 73 94 29 8 51 -9 36 -27z m-1190 -8 c20 -21 29 -36 22
-40 -10 -7 -37 16 -70 57 -26 33 13 19 48 -17z m1472 17 c-5 -10 -20 -28 -34
-41 -18 -17 -27 -20 -33 -11 -4 8 5 23 25 41 36 32 57 37 42 11z m-724 -28 c7
-21 -4 -32 -19 -17 -7 7 -17 8 -30 1 -14 -7 -18 -6 -18 5 0 27 57 36 67 11z
m-532 -34 c-20 -20 -29 -8 -15 19 10 18 14 20 21 9 5 -9 3 -19 -6 -28z m1008
17 c4 -12 4 -24 1 -27 -8 -9 -37 27 -30 38 11 17 23 13 29 -11z m-639 -13 c-4
-8 -1 -15 5 -15 13 0 14 -29 2 -49 -14 -21 -44 5 -32 27 5 8 6 23 4 33 -4 13
0 19 11 19 10 0 13 -6 10 -15z m276 0 c0 -8 -4 -15 -10 -15 -5 0 -10 7 -10 15
0 8 5 15 10 15 6 0 10 -7 10 -15z m-587 -11 c3 -3 3 -12 0 -20 -4 -11 -9 -12
-19 -3 -11 9 -14 8 -14 -3 0 -8 16 -18 37 -24 42 -10 51 -29 29 -59 -19 -26
-42 -13 -73 43 -21 37 -21 42 -7 56 16 16 36 21 47 10z m414 -15 c-12 -7 -16
-17 -12 -30 4 -13 2 -19 -9 -19 -16 0 -31 34 -21 50 3 5 18 10 33 10 24 -1 25
-2 9 -11z m88 -19 c0 -32 -21 -37 -27 -6 -3 14 -3 28 0 31 12 11 27 -3 27 -25z
m74 17 c8 -10 7 -17 -1 -25 -26 -26 -60 -4 -38 23 15 18 24 19 39 2z m-363
-11 c3 -8 16 -17 30 -20 27 -7 33 -40 8 -50 -9 -3 -12 -2 -9 5 8 12 -23 49
-42 49 -7 0 -13 7 -13 15 0 19 19 20 26 1z m-391 -6 c3 -5 1 -10 -4 -10 -6 0
-11 5 -11 10 0 6 2 10 4 10 3 0 8 -4 11 -10z m875 1 c0 -14 -18 -23 -30 -16
-6 4 -8 11 -5 16 8 12 35 12 35 0z m-63 -45 c-8 -19 -37 -21 -37 -3 0 7 5 18
12 25 15 15 33 -1 25 -22z m-487 8 c0 -19 -78 -182 -91 -190 -5 -3 -12 2 -15
10 -3 9 14 50 40 95 25 44 46 85 46 91 0 5 5 10 10 10 6 0 10 -7 10 -16z m630
-46 c18 -35 41 -75 51 -90 10 -14 19 -30 19 -35 0 -12 -41 -36 -48 -28 -4 3 0
10 7 14 10 7 7 18 -14 51 -49 78 -73 150 -50 150 2 0 18 -28 35 -62z m-437 37
c-3 -9 -2 -15 3 -14 21 4 25 -2 13 -18 -13 -15 -11 -16 21 -10 37 8 51 22 43
44 -3 7 -1 13 5 13 17 0 23 -44 7 -56 -19 -15 -19 -38 1 -55 13 -10 17 -10 24
1 4 7 6 19 3 27 -7 19 26 42 60 43 32 0 34 -10 7 -35 -28 -25 -25 -45 5 -45
25 0 33 14 15 25 -6 4 -8 11 -4 16 3 5 10 7 15 4 5 -4 9 -1 9 5 0 7 8 9 20 5
12 -4 28 -1 38 7 12 9 12 7 -2 -10 -11 -12 -25 -21 -32 -18 -8 3 -12 -4 -11
-22 2 -30 19 -28 -153 -22 -41 2 -89 0 -107 -4 -29 -7 -31 -5 -26 14 4 14 -2
30 -18 46 l-24 25 28 -10 c39 -15 40 -15 34 18 -6 31 -1 41 19 41 8 0 11 -6 7
-15z m130 -4 c3 -14 1 -18 -9 -14 -8 3 -14 11 -14 19 0 21 17 17 23 -5z m-259
-7 c3 -8 2 -12 -4 -9 -6 3 -10 10 -10 16 0 14 7 11 14 -7z m351 6 c3 -5 -3
-10 -14 -10 -12 0 -21 5 -21 10 0 6 6 10 14 10 8 0 18 -4 21 -10z m-750 -10
c-3 -5 -10 -10 -16 -10 -5 0 -9 5 -9 10 0 6 7 10 16 10 8 0 12 -4 9 -10z
m1273 -15 c-3 -3 -9 2 -12 12 -6 14 -5 15 5 6 7 -7 10 -15 7 -18z m-1155 -101
c4 -7 14 -11 22 -8 12 5 15 -4 15 -45 0 -28 -4 -51 -10 -51 -5 0 -10 -16 -10
-35 0 -38 -24 -95 -40 -95 -13 0 -13 17 0 25 18 11 11 26 -7 17 -21 -11 -38
-6 -76 20 -32 23 -60 72 -55 96 3 12 12 5 31 -26 15 -23 38 -48 52 -54 31 -14
75 -3 75 20 0 10 5 23 10 28 15 15 -22 96 -56 123 -20 15 -36 20 -55 16 -19
-4 -28 -1 -32 9 -7 18 20 36 42 28 10 -3 11 2 6 19 -6 18 4 11 36 -25 24 -27
47 -55 52 -62z m1102 85 c-6 -19 -4 -21 13 -16 23 5 48 -16 38 -32 -3 -5 -22
-9 -41 -8 -26 1 -40 -5 -50 -21 -9 -11 -23 -29 -33 -38 -24 -24 -22 -102 3
-121 40 -28 71 -13 134 67 31 39 27 -1 -5 -49 -30 -47 -79 -74 -106 -60 -19
10 -26 -5 -8 -16 11 -7 4 -25 -9 -25 -10 0 -31 46 -31 70 0 10 -5 31 -11 47
-16 42 -18 113 -2 113 7 0 13 -6 14 -12 0 -8 3 -7 6 2 4 8 23 35 45 59 21 24
38 48 38 52 0 5 3 9 6 9 3 0 2 -10 -1 -21z m-1235 -83 c0 -7 -7 -19 -15 -26
-16 -13 -20 -3 -9 24 8 20 24 21 24 2z m340 -30 c-1 -15 -39 -60 -46 -53 -3 3
-2 16 2 29 9 26 11 34 13 49 1 15 31 -9 31 -25z m925 9 c0 -29 -20 -28 -21 0
-1 16 3 24 10 22 6 -2 11 -12 11 -22z m-287 3 c14 -14 16 -58 2 -58 -12 0 -30
33 -30 54 0 19 11 21 28 4z m-900 -6 c13 11 15 11 9 -4 -4 -11 -2 -17 6 -15 7
1 12 -5 12 -13 0 -9 -7 -14 -17 -12 -22 4 -23 -7 -2 -37 12 -16 13 -26 6 -33
-15 -15 -43 8 -35 28 3 8 0 21 -7 29 -9 11 -9 15 -1 15 7 0 10 4 6 10 -3 5
-12 7 -19 4 -16 -6 -30 11 -21 26 4 7 13 6 26 -1 15 -8 24 -7 37 3z m828 -77
c1 -44 -3 -85 -7 -91 -5 -7 -24 -8 -46 -5 -29 5 -38 11 -38 26 0 18 -62 115
-73 115 -2 0 -15 -9 -29 -20 -23 -18 -28 -19 -42 -6 -14 13 -16 11 -17 -20 -1
-41 5 -42 44 -9 30 25 62 33 62 15 0 -5 -11 -17 -25 -26 -18 -12 -24 -22 -19
-36 5 -17 2 -19 -26 -14 -26 4 -33 1 -37 -15 -7 -24 -23 -25 -30 0 -3 13 -12
17 -34 15 -24 -3 -29 0 -29 19 0 12 -12 30 -26 40 -24 18 -26 18 -45 1 -10 -9
-19 -23 -19 -31 0 -7 -5 -13 -11 -13 -6 0 -8 -9 -4 -20 6 -18 2 -20 -39 -20
l-45 0 -3 86 c-2 47 -1 88 1 90 3 2 124 3 270 2 l266 -3 1 -80z m315 54 c12
-14 24 -19 38 -14 18 5 39 -10 28 -21 -12 -13 -57 -11 -57 2 0 17 -12 18 -28
2 -19 -19 -37 4 -23 31 14 26 19 26 42 0z m-1106 -50 c11 -17 -1 -21 -15 -4
-8 9 -8 15 -2 15 6 0 14 -5 17 -11z m1113 -11 c8 -8 9 -15 1 -25 -16 -18 -43
-17 -35 2 3 9 0 15 -10 15 -8 0 -12 5 -9 10 8 14 38 13 53 -2z m-213 -9 c11
-17 -1 -21 -15 -4 -8 9 -8 15 -2 15 6 0 14 -5 17 -11z m-38 -36 c10 -16 22
-31 28 -35 6 -5 5 -12 -3 -20 -10 -10 -17 -7 -37 17 -25 31 -33 65 -15 65 5 0
17 -12 27 -27z m-647 3 c0 -15 -37 -66 -49 -66 -12 0 -7 46 8 63 16 20 41 22
41 3z m-82 -14 c2 -7 -6 -12 -17 -12 -21 0 -27 11 -14 24 9 9 26 2 31 -12z
m21 -106 l0 -21 -9 21 c-5 12 -13 25 -19 29 -6 3 -11 14 -11 23 1 14 4 13 20
-7 11 -13 20 -33 19 -45z m381 48 c17 3 30 1 30 -4 0 -6 9 -10 20 -10 11 0 20
5 20 10 0 6 9 10 20 10 11 0 20 -4 20 -10 0 -5 -9 -10 -20 -10 -10 0 -24 -8
-30 -17 -9 -17 -11 -17 -20 -1 -8 13 -21 16 -58 12 -26 -2 -48 -9 -50 -14 -5
-15 -22 -12 -22 4 0 10 -19 14 -79 14 -71 1 -80 -1 -84 -19 -5 -18 -1 -20 38
-18 25 2 47 0 51 -4 4 -4 -13 -7 -39 -7 -25 0 -49 -4 -52 -10 -3 -5 0 -10 9
-10 8 0 17 -6 20 -12 5 -10 7 -10 12 0 3 6 12 12 19 12 7 0 16 -6 19 -12 5
-10 7 -10 12 0 3 6 15 12 26 12 20 0 20 -1 4 -19 -13 -15 -16 -28 -10 -57 7
-41 7 -44 -1 -44 -3 1 -13 -6 -21 -15 -15 -14 -17 -14 -28 0 -13 18 -41 12
-50 -12 -9 -21 3 -31 14 -13 8 13 13 13 31 2 18 -11 24 -11 40 4 17 15 19 15
25 0 8 -21 30 -21 43 2 10 16 12 16 25 0 7 -10 19 -18 26 -18 10 0 12 23 8
100 -4 76 -2 103 8 111 22 18 30 -19 24 -110 -3 -45 -3 -86 -2 -91 6 -16 32
-12 32 5 0 8 7 15 15 15 8 0 15 -7 15 -15 0 -8 7 -15 15 -15 8 0 15 7 15 15 0
8 4 15 9 15 5 0 11 -7 15 -15 3 -8 12 -15 21 -15 8 0 15 7 15 15 0 8 5 15 10
15 6 0 13 -7 16 -15 8 -20 24 -19 40 2 20 29 29 6 30 -82 1 -72 -1 -87 -19
-106 -14 -15 -17 -24 -9 -27 14 -4 16 -32 2 -32 -5 0 -10 6 -10 14 0 20 -25
25 -95 21 -49 -3 -57 -1 -43 9 15 11 15 13 1 22 -9 5 -17 21 -18 34 -1 13 -8
26 -15 28 -9 3 -11 -2 -7 -17 3 -11 2 -23 -3 -26 -4 -2 -10 9 -14 25 -3 17
-12 30 -20 30 -16 0 -31 18 -23 27 3 3 16 -4 28 -16 15 -14 26 -17 34 -11 15
13 55 1 55 -16 0 -8 -7 -14 -15 -14 -8 0 -15 -4 -15 -10 0 -5 6 -10 13 -10 8
0 22 -9 32 -20 10 -11 25 -20 34 -20 15 1 15 2 0 13 -21 16 -31 77 -12 77 7 0
13 -10 13 -22 1 -25 32 -68 49 -68 15 0 14 9 -4 26 -20 21 -20 64 1 64 12 0
15 -6 10 -25 -5 -18 -1 -27 14 -35 19 -10 20 -8 20 45 0 30 -4 55 -10 55 -5 0
-10 -8 -10 -17 -1 -17 -1 -17 -14 0 -13 17 -52 25 -41 8 3 -5 1 -12 -5 -16 -6
-3 -13 1 -16 9 -6 16 -47 24 -41 9 2 -8 -6 -13 -24 -13 -5 0 -7 5 -4 10 3 6
-3 10 -14 10 -10 0 -22 -6 -25 -12 -5 -10 -7 -10 -12 0 -3 6 -21 12 -39 12
-18 0 -36 -6 -39 -12 -5 -10 -7 -10 -12 0 -8 16 -22 15 -41 -3 -8 -8 -20 -12
-26 -8 -7 4 -4 9 9 14 16 6 15 8 -8 8 -18 1 -28 -4 -28 -14 0 -9 -6 -12 -15
-9 -8 4 -12 10 -9 15 3 5 -4 9 -15 9 -12 0 -21 -7 -21 -15 0 -8 -9 -15 -19
-15 -11 0 -21 -4 -23 -10 -2 -5 -4 19 -6 55 -2 48 1 65 11 65 15 0 39 82 31
105 -8 21 -26 19 -23 -2 3 -32 -1 -57 -7 -50 -4 4 -7 43 -7 88 l1 82 83 2 c48
1 90 -3 98 -9 10 -8 17 -7 25 6 7 12 14 14 23 6 7 -6 27 -8 43 -4z m244 -94
c1 -50 -2 -96 -6 -103 -7 -10 -13 91 -10 161 1 20 -3 22 -54 22 -30 0 -53 3
-51 8 3 4 31 6 62 5 l58 -1 1 -92z m-584 66 c0 -3 -4 -8 -10 -11 -5 -3 -10 -1
-10 4 0 6 5 11 10 11 6 0 10 -2 10 -4z m666 -8 c12 -17 11 -38 -2 -62 -9 -15
-15 -16 -33 -7 -21 12 -29 41 -11 41 6 0 10 9 10 20 0 22 23 27 36 8z m-629
-59 l1 -44 -19 24 c-10 12 -16 27 -13 32 3 5 -2 6 -10 3 -21 -8 -20 6 2 22 27
21 37 11 39 -37z m378 23 c-3 -8 2 -26 11 -39 12 -19 13 -28 4 -37 -8 -8 -16
-5 -30 14 -11 14 -20 33 -20 42 0 9 -4 20 -10 23 -20 12 -9 21 21 17 22 -3 29
-9 24 -20z m-137 -9 c-18 -42 -39 -73 -49 -73 -14 0 -10 28 7 55 10 15 12 25
5 25 -6 0 -11 5 -11 10 0 6 13 10 30 10 29 0 29 -1 18 -27z m272 23 c0 -11
-19 -15 -25 -6 -3 5 1 10 9 10 9 0 16 -2 16 -4z m-60 -36 c7 12 11 12 25 0 14
-12 18 -12 27 1 7 10 8 5 4 -18 -3 -17 -1 -45 4 -63 12 -42 -6 -66 -33 -42
-16 14 -19 14 -32 -4 -22 -29 -34 -2 -32 72 2 51 4 60 15 51 10 -8 16 -7 22 3z
m-77 -80 c10 -12 17 -23 15 -25 -5 -5 -30 -8 -53 -6 -15 1 -17 3 -6 10 11 7
11 15 2 41 -18 52 -19 53 42 -20z m-435 5 c6 -5 -33 -64 -51 -75 -27 -17 -30
-8 -10 36 9 21 16 43 15 47 -2 7 36 0 46 -8z m292 -5 c0 -11 5 -20 10 -20 6 0
10 -4 10 -9 0 -5 -9 -7 -20 -4 -21 5 -30 53 -10 53 6 0 10 -9 10 -20z m540
-15 c-27 -29 -37 -27 -20 4 6 12 18 21 27 21 13 0 12 -5 -7 -25z m-735 -5 c3
-5 1 -10 -4 -10 -6 0 -11 5 -11 10 0 6 2 10 4 10 3 0 8 -4 11 -10z m-35 -10
c0 -5 -9 -19 -20 -30 -20 -20 -27 -36 -11 -26 12 8 34 -21 26 -34 -5 -7 -18
-4 -41 9 -19 11 -41 18 -50 14 -15 -5 -15 -3 1 20 19 30 30 34 39 15 3 -7 3
-3 0 9 -5 21 -3 22 49 32 4 0 7 -3 7 -9z m623 -9 c15 -8 27 -20 27 -28 0 -7 7
-13 15 -13 12 0 14 7 9 28 -6 26 -6 26 9 7 9 -11 17 -28 17 -37 0 -14 -6 -16
-27 -12 -50 10 -66 9 -70 -3 -3 -7 2 -13 11 -13 26 0 18 -15 -8 -18 -28 -2
-42 24 -25 45 9 10 9 17 1 25 -10 10 -5 42 7 36 3 -2 18 -10 34 -17z m-763
-68 c16 -19 23 -73 11 -73 -4 0 -18 11 -31 25 -13 14 -28 25 -34 24 -6 0 -5
-3 2 -6 16 -6 15 -23 -2 -23 -12 0 -25 28 -26 54 0 4 11 5 25 2 14 -4 25 -2
25 4 0 15 14 12 30 -7z m913 -8 c-3 -8 -11 -15 -19 -15 -8 0 -14 -7 -14 -16 0
-11 6 -14 20 -9 11 4 20 2 20 -4 0 -6 -7 -11 -15 -11 -12 0 -13 -4 -5 -19 14
-28 14 -29 -25 -29 -19 0 -35 4 -35 9 0 5 6 9 14 9 14 0 30 29 21 38 -3 3 -18
-7 -34 -22 -16 -15 -31 -24 -34 -19 -9 15 44 93 63 93 11 0 22 5 25 10 9 15
25 2 18 -15z m-934 -97 c-42 -35 -71 -16 -38 25 19 25 21 25 40 9 20 -17 20
-17 -2 -34z m401 16 c-8 -19 -20 -32 -26 -30 -5 2 -21 -5 -35 -15 l-24 -20 25
2 c44 2 57 -1 35 -10 -16 -7 -92 -8 -127 -2 -14 2 -8 21 11 40 13 13 18 27 14
42 -4 16 -2 20 8 17 8 -3 13 -16 11 -31 -1 -14 3 -29 9 -33 14 -8 29 13 29 43
0 22 14 29 60 29 26 1 26 0 10 -32z m-160 -5 c0 -37 -21 -61 -41 -48 -12 8
-12 10 1 19 8 5 16 15 16 22 1 7 2 19 3 26 2 26 21 10 21 -19z m217 -19 c1
-24 1 -24 -4 -2 -3 15 -10 22 -19 18 -8 -3 -14 -1 -14 5 0 23 35 3 37 -21z
m-387 10 c0 -5 -4 -10 -9 -10 -6 0 -13 5 -16 10 -3 6 1 10 9 10 9 0 16 -4 16
-10z m38 -16 c-10 -22 -9 -27 5 -35 9 -6 17 -14 17 -20 0 -13 -42 9 -54 28 -6
12 -13 10 -37 -13 -16 -15 -29 -32 -29 -37 0 -4 7 -1 16 7 28 29 37 17 12 -16
-31 -40 -58 -48 -58 -18 0 12 5 30 10 41 7 13 7 19 0 19 -5 0 -10 -7 -10 -15
0 -8 -7 -15 -15 -15 -8 0 -15 9 -15 20 0 25 47 50 94 50 19 0 41 7 48 15 21
23 29 17 16 -11z m632 -8 c0 -7 -8 -20 -17 -27 -15 -12 -16 -12 -10 4 4 10 7
23 7 28 0 5 5 9 10 9 6 0 10 -6 10 -14z m-304 -50 c8 -3 14 -1 14 5 0 6 5 7
10 4 8 -5 7 -11 -1 -21 -18 -22 -59 19 -50 49 5 20 6 20 9 -5 2 -14 10 -29 18
-32z m354 39 c9 -11 9 -15 1 -15 -6 0 -19 -13 -29 -29 -12 -20 -22 -27 -31
-22 -19 12 -4 51 19 51 13 0 17 5 14 15 -4 8 -2 15 4 15 5 0 15 -7 22 -15z
m117 -17 c26 -24 31 -50 8 -42 -8 4 -15 12 -15 19 0 7 -7 15 -15 19 -15 5 -21
26 -8 26 4 0 17 -10 30 -22z m-709 -32 c17 -34 11 -42 -17 -24 -12 7 -21 23
-21 36 0 31 21 24 38 -12z m307 24 c-3 -5 -10 -10 -16 -10 -5 0 -9 5 -9 10 0
6 7 10 16 10 8 0 12 -4 9 -10z m374 -16 c12 -15 21 -33 21 -40 0 -22 -48 -17
-60 7 -15 27 -7 35 14 14 9 -9 16 -12 16 -6 0 15 -32 29 -50 23 -13 -5 -13 -3
-1 11 19 24 36 21 60 -9z m-933 -28 c20 -21 17 -28 -6 -16 -12 6 -30 8 -42 4
-15 -4 -18 -3 -13 6 6 9 3 9 -12 1 -11 -6 -23 -7 -27 -3 -4 3 -97 7 -207 7
-164 0 -199 -2 -199 -14 0 -11 -4 -11 -18 2 -20 18 -37 23 -28 8 11 -18 -20
-18 -38 0 -19 19 -12 19 278 19 244 0 300 -3 312 -14z m329 4 c-3 -5 -12 -10
-18 -10 -7 0 -6 4 3 10 19 12 23 12 15 0z m155 -20 c0 -15 -5 -12 -26 11 -19
22 -19 22 4 10 12 -6 22 -16 22 -21z m232 12 c7 -7 9 -15 5 -19 -4 -4 -13 -1
-19 5 -7 7 -27 12 -46 12 -18 0 -31 4 -28 9 8 12 74 7 88 -7z m874 11 c-4 -5
-12 -9 -17 -9 -5 -1 -13 -2 -18 -3 -5 0 -12 -9 -14 -18 -4 -14 -5 -12 -6 5 -1
17 -7 22 -27 22 -15 0 -33 -8 -41 -17 -14 -17 -14 -17 -9 0 5 17 -5 18 -212
12 -119 -3 -225 -8 -234 -11 -12 -4 -18 0 -18 10 0 14 34 16 302 16 166 0 298
-3 294 -7z m-1402 -18 c-4 -8 -8 -15 -10 -15 -2 0 -4 7 -4 15 0 8 4 15 10 15
5 0 7 -7 4 -15z m350 0 c-4 -8 -11 -15 -16 -15 -6 0 -5 6 2 15 7 8 14 15 16
15 2 0 1 -7 -2 -15z m302 0 c-25 -19 -37 -19 -30 0 4 8 16 15 28 15 21 -1 21
-1 2 -15z m-41 -33 c-2 -3 -11 1 -19 7 -8 7 -21 9 -28 5 -9 -6 -9 -3 1 9 13
16 15 16 32 1 11 -10 17 -19 14 -22z m85 28 c0 -5 -5 -10 -10 -10 -6 0 -2 -10
10 -22 11 -12 20 -24 20 -27 0 -9 -20 -37 -20 -28 0 4 1 9 3 11 1 2 -6 13 -16
24 -12 13 -16 28 -12 41 6 21 25 29 25 11z m611 -13 c-10 -9 -11 -8 -5 6 3 10
9 15 12 12 3 -3 0 -11 -7 -18z m-1338 -44 c10 -12 26 -19 33 -16 26 10 14 -22
-13 -34 -39 -18 -46 -16 -39 11 6 23 4 24 -34 19 -45 -6 -52 7 -17 32 15 12
18 19 9 22 -6 3 -10 9 -7 13 6 10 35 -10 68 -47z m81 41 c8 -21 -1 -34 -25
-34 -12 0 -19 7 -19 18 0 34 33 45 44 16z m736 -9 c-7 -9 -15 -13 -17 -11 -7
7 7 26 19 26 6 0 6 -6 -2 -15z m-955 -5 c3 -6 -1 -7 -9 -4 -18 7 -21 14 -7 14
6 0 13 -4 16 -10z m895 0 c0 -5 6 -10 14 -10 12 0 31 -29 24 -35 -2 -1 -16 10
-33 26 -16 16 -24 29 -17 29 6 0 12 -4 12 -10z m-1470 -10 c0 -5 -5 -10 -11
-10 -5 0 -7 5 -4 10 3 6 8 10 11 10 2 0 4 -4 4 -10z m609 -17 c-7 -10 -14 -19
-15 -21 -1 -2 -4 4 -8 13 -3 9 -2 13 4 10 6 -3 10 -1 10 4 0 6 5 11 11 11 8 0
7 -6 -2 -17z m371 7 c8 -5 11 -12 7 -16 -4 -4 -15 0 -24 9 -18 18 -8 23 17 7z
m440 -10 c0 -5 -7 -10 -16 -10 -11 0 -14 -6 -9 -20 4 -12 1 -27 -5 -35 -6 -8
-9 -19 -5 -25 4 -6 -3 -6 -19 2 -31 13 -35 28 -6 21 11 -3 20 -1 20 5 0 6 -9
14 -20 17 -27 9 -25 22 5 29 14 4 25 11 25 16 0 6 7 10 15 10 8 0 15 -4 15
-10z m-539 -18 c-17 -31 -41 -48 -50 -33 -6 9 -11 8 -21 -4 -10 -12 -10 -15 4
-15 14 0 13 -5 -7 -37 -42 -69 -48 -91 -31 -107 8 -8 20 -13 27 -10 7 3 32 48
57 100 24 53 47 97 50 99 3 2 11 -8 17 -22 10 -20 9 -22 -1 -14 -10 8 -17 7
-26 -4 -10 -12 -10 -16 1 -19 40 -13 41 -14 13 -15 -24 -1 -34 -7 -39 -23 -4
-13 -8 -25 -9 -28 -1 -3 -10 -22 -20 -42 -21 -43 -48 -56 -81 -38 -20 11 -22
17 -14 42 4 17 12 35 18 41 5 7 11 21 13 32 1 11 7 23 12 27 6 4 5 13 -3 22
-13 16 -6 40 9 31 5 -3 13 2 18 11 6 10 16 15 25 11 9 -3 19 -2 22 3 12 19 26
11 16 -8z m349 -2 c0 -5 -11 -12 -25 -16 -25 -6 -30 -32 -5 -26 7 1 18 -2 26
-8 10 -9 13 -6 11 17 -2 26 0 28 36 28 43 0 60 -13 47 -35 -7 -11 -11 -11 -24
-1 -13 11 -18 10 -32 -4 -15 -15 -14 -21 21 -87 21 -40 33 -74 28 -79 -5 -5
-17 13 -28 43 -10 28 -24 59 -31 67 -8 9 -20 25 -28 36 -11 15 -17 17 -28 8
-11 -9 -16 -8 -26 8 -11 17 -9 23 14 44 25 23 44 25 44 5z m-1180 6 c0 -2 -7
-6 -15 -10 -8 -3 -15 -1 -15 4 0 6 7 10 15 10 8 0 15 -2 15 -4z m1434 -11 c-4
-9 12 -33 39 -61 30 -31 43 -52 39 -63 -16 -45 -56 -40 -114 14 -43 39 -60 65
-41 65 8 0 83 -83 83 -92 0 -16 48 -7 55 10 5 12 -6 29 -43 62 -45 41 -47 46
-33 63 19 21 22 21 15 2z m81 -23 c-3 -3 -11 0 -18 7 -9 10 -8 11 6 5 10 -3
15 -9 12 -12z m510 8 c3 -5 1 -10 -4 -10 -6 0 -11 5 -11 10 0 6 2 10 4 10 3 0
8 -4 11 -10z m-1411 -12 c-5 -7 -25 -28 -46 -47 -21 -19 -36 -41 -34 -48 3 -7
1 -13 -4 -13 -21 0 -9 37 20 65 17 16 28 35 26 42 -4 9 3 13 20 13 18 0 23 -4
18 -12z m362 -88 c-1 -55 -6 -103 -9 -107 -8 -8 -9 -1 -7 100 1 42 -1 77 -5
77 -3 0 -14 -5 -25 -12 -10 -7 -22 -9 -26 -6 -10 11 6 28 26 28 10 0 22 5 25
10 17 28 24 0 21 -90z m82 75 c12 -14 31 -25 41 -25 11 0 22 -4 25 -9 4 -5
-12 -7 -35 -5 l-41 4 5 -45 c9 -67 -15 -124 -50 -125 -21 0 -15 14 10 25 20 9
22 17 21 83 0 40 4 72 9 72 6 0 3 8 -6 18 -10 10 -17 22 -17 25 0 14 17 6 38
-18z m-518 6 c0 -5 -7 -11 -14 -14 -10 -4 -13 -1 -9 9 6 15 23 19 23 5z m-521
-45 c-2 -2 -13 8 -23 22 l-19 27 24 -22 c12 -12 21 -24 18 -27z m701 34 c0 -5
-8 -10 -18 -10 -10 0 -40 -22 -67 -50 -49 -50 -109 -83 -98 -54 3 8 13 14 23
14 10 0 33 17 51 38 50 57 109 91 109 62z m596 -85 c24 -48 21 -69 -11 -83
-31 -14 -33 0 -3 20 l21 14 -31 56 c-17 31 -28 59 -25 62 7 7 22 -14 49 -69z
m-646 -15 c0 -5 -2 -10 -4 -10 -3 0 -8 5 -11 10 -3 6 -1 10 4 10 6 0 11 -4 11
-10z m-137 -78 c16 -18 15 -18 -18 -18 -19 1 -35 5 -35 10 0 5 -8 2 -17 -5
-16 -13 -17 -12 -5 3 8 9 23 19 35 21 12 2 22 5 23 6 0 0 8 -7 17 -17z m-388
-2 c3 -5 1 -10 -4 -10 -6 0 -11 5 -11 10 0 6 2 10 4 10 3 0 8 -4 11 -10z m460
-2 c5 4 5 1 1 -6 -6 -10 -11 -10 -22 -1 -8 6 -14 14 -14 16 0 3 6 0 13 -6 8
-6 18 -7 22 -3z m925 -3 c0 -1 -12 -2 -26 -2 -17 0 -22 2 -13 7 10 7 39 3 39
-5z m-128 -25 c37 0 68 -3 68 -8 0 -7 -81 -7 -165 -1 -25 1 -26 3 -7 6 13 3
20 9 16 16 -5 8 -2 8 7 0 8 -8 40 -13 81 -13z m-673 -10 c-6 -5 -18 -6 -26 -3
-7 3 -13 0 -13 -6 0 -6 5 -11 11 -11 5 0 7 -5 4 -10 -4 -7 -14 -3 -26 11 -10
12 -24 19 -31 17 -7 -3 -22 -1 -33 4 -14 6 -7 7 25 5 25 -2 54 -1 65 3 24 9
43 1 24 -10z m244 10 c7 0 7 -4 -2 -9 -16 -10 -41 -4 -41 11 0 6 7 7 16 4 9
-3 21 -6 27 -6z m145 -4 c14 -1 27 -7 28 -14 1 -7 0 -8 -3 -2 -6 12 -33 13
-33 1 0 -5 7 -11 15 -15 9 -3 15 -18 15 -35 0 -21 -6 -30 -22 -34 -30 -8 -41
1 -35 32 7 33 -13 61 -44 62 -21 1 -20 2 6 8 17 4 34 5 39 3 5 -3 20 -5 34 -6z
m147 4 c3 -5 1 -10 -4 -10 -6 0 -11 5 -11 10 0 6 2 10 4 10 3 0 8 -4 11 -10z
m-780 -116 c7 -8 20 -14 27 -15 9 0 10 -2 1 -5 -7 -3 -21 0 -32 6 -18 9 -21
19 -19 73 l2 62 3 -54 c2 -29 10 -60 18 -67z m41 101 c-3 -9 0 -15 9 -15 15 0
45 -37 45 -57 0 -21 -21 -15 -27 7 -3 11 -12 20 -20 20 -10 0 -12 -6 -8 -21 6
-16 3 -20 -11 -17 -13 2 -18 14 -19 51 -2 41 0 47 17 47 14 0 18 -5 14 -15z
m54 6 c0 -12 -20 -25 -27 -18 -7 7 6 27 18 27 5 0 9 -4 9 -9z m215 2 c-11 -3
-23 -10 -27 -16 -4 -6 -10 -8 -15 -4 -10 11 17 27 42 26 l20 -1 -20 -5z m125
-9 c0 -12 -3 -14 -12 -6 -7 5 -30 8 -50 7 -21 -2 -38 1 -38 6 0 5 23 9 50 9
39 0 50 -3 50 -16z m267 10 c-3 -3 -12 -4 -19 -1 -8 3 -5 6 6 6 11 1 17 -2 13
-5z m343 -9 c-10 -12 -16 -13 -26 -4 -20 16 -18 19 12 19 22 0 25 -2 14 -15z
m55 -51 c-3 -37 -16 -63 -35 -69 -23 -7 -40 1 -39 18 0 9 2 9 6 0 8 -20 28
-15 42 10 14 26 16 52 6 87 l-7 25 15 -26 c7 -14 13 -34 12 -45z m-575 46 c0
-5 -4 -10 -10 -10 -5 0 -10 5 -10 10 0 6 5 10 10 10 6 0 10 -4 10 -10z m267
-10 c13 0 23 -5 23 -11 0 -6 -7 -9 -15 -5 -11 4 -15 -2 -15 -22 0 -21 2 -24
10 -12 8 12 10 11 10 -7 0 -27 -12 -29 -34 -8 -17 17 -36 20 -36 5 0 -5 -5
-10 -10 -10 -6 0 -8 10 -4 24 3 13 1 27 -5 30 -7 5 -11 -7 -11 -33 0 -30 -4
-41 -15 -41 -11 0 -15 12 -15 45 0 42 2 45 26 45 14 0 33 -7 42 -16 13 -13 17
-14 21 -3 2 7 -1 15 -7 17 -7 2 -12 9 -12 15 0 8 4 7 12 -1 7 -7 22 -12 35
-12z m-647 -45 c0 -33 -4 -45 -15 -45 -11 0 -15 12 -15 45 0 33 4 45 15 45 11
0 15 -12 15 -45z m40 24 c9 -15 8 -24 -1 -35 -10 -12 -8 -17 7 -29 24 -18 71
-19 77 -2 2 6 8 9 12 5 12 -11 1 -19 -39 -28 -22 -5 -36 -4 -36 2 0 5 -12 8
-27 5 -16 -2 -22 -2 -15 0 15 6 15 16 0 31 -8 8 -8 15 1 26 8 10 9 16 1 21
-13 8 -13 25 0 25 5 0 14 -9 20 -21z m78 -16 c2 -24 -1 -32 -19 -36 -28 -8
-39 -1 -39 24 0 24 17 25 23 2 3 -10 5 -3 6 15 1 42 25 38 29 -5z m72 20 c0
-14 -2 -15 -9 -5 -6 11 -10 11 -19 0 -8 -10 -4 -21 17 -46 30 -34 46 -40 54
-19 3 7 6 5 6 -5 1 -10 -4 -18 -11 -18 -6 0 -21 -8 -32 -17 -20 -17 -20 -17
-6 0 13 17 10 22 -24 51 -35 29 -38 34 -27 54 14 27 51 30 51 5z m40 -18 c0
-19 -4 -35 -10 -35 -5 0 -10 16 -10 35 0 19 5 35 10 35 6 0 10 -16 10 -35z
m40 -2 c-1 -35 -2 -37 -15 -19 -10 13 -11 24 -4 37 14 28 19 23 19 -18z m87
21 c3 -8 1 -26 -5 -40 -15 -31 -35 -32 -23 -1 5 13 6 29 2 36 -11 17 -23 -13
-14 -35 4 -12 2 -15 -8 -12 -16 5 -23 32 -15 54 7 19 55 18 63 -2z m80 -21 c1
-23 -3 -33 -13 -33 -8 0 -14 10 -14 25 0 14 -5 25 -11 25 -7 0 -10 -12 -7 -28
4 -30 -16 -41 -26 -15 -3 7 -1 13 4 13 6 0 10 8 10 18 0 25 10 33 35 30 15 -2
20 -11 22 -35z m276 25 c4 -10 8 -9 16 2 9 12 11 10 11 -12 0 -15 5 -30 10
-33 6 -4 7 -11 4 -17 -5 -7 -12 -5 -20 7 -8 10 -17 15 -21 11 -13 -12 13 -41
43 -47 20 -5 12 -6 -26 -6 -30 0 -47 2 -37 5 21 4 22 16 2 32 -15 13 -20 51
-8 63 10 11 21 8 26 -5z m77 -23 c0 -39 -15 -48 -22 -12 -5 27 0 47 13 47 5 0
9 -16 9 -35z m40 0 c0 -38 -15 -47 -25 -15 -6 18 8 50 21 50 2 0 4 -16 4 -35z
m46 11 c6 -26 -1 -46 -17 -46 -5 0 -9 16 -9 35 0 40 17 47 26 11z m44 -12 c0
-24 -4 -34 -12 -32 -24 8 -22 68 2 68 5 0 10 -16 10 -36z m-967 -68 c34 -16
44 -25 34 -29 -9 -3 -21 1 -27 9 -7 8 -18 14 -25 14 -7 0 -18 7 -25 15 -16 20
-14 19 43 -9z m347 14 c0 -5 7 -7 15 -4 8 4 15 1 15 -5 0 -15 -23 -14 -38 1
-9 9 -12 8 -12 -5 0 -17 -11 -22 -23 -10 -4 3 1 12 11 19 20 16 32 17 32 4z
m320 1 c0 -5 10 -12 23 -14 20 -4 20 -4 1 -6 -11 0 -29 6 -40 14 -17 13 -17
14 -1 15 9 0 17 -4 17 -9z m-249 -23 c-16 -5 -21 -13 -17 -24 3 -9 1 -14 -5
-12 -6 2 -10 6 -9 8 9 42 13 47 33 42 20 -5 20 -5 -2 -14z m159 0 c8 -3 -16
-4 -53 -2 -75 3 -105 13 -38 12 23 0 45 2 48 6 3 3 11 2 17 -3 6 -4 18 -11 26
-13z m296 4 c-10 -2 -22 0 -28 6 -6 6 0 7 19 4 21 -5 23 -7 9 -10z m-649 2
c-3 -3 -12 -4 -19 -1 -8 3 -5 6 6 6 11 1 17 -2 13 -5z m397 -5 c-3 -6 -1 -15
6 -19 15 -9 15 -92 1 -118 -7 -12 -8 -5 -4 25 3 23 2 50 -2 60 -5 10 -9 20 -9
23 -1 3 -4 10 -8 16 -8 12 -1 24 14 24 5 0 6 -5 2 -11z m-322 -43 c-4 -22 6
-20 28 7 10 12 22 19 26 15 4 -4 1 -15 -6 -23 -10 -12 -10 -21 -1 -42 16 -34
4 -44 -19 -15 -18 21 -39 14 -25 -8 3 -5 -2 -10 -12 -10 -16 0 -18 7 -16 48 1
26 2 49 2 50 1 2 7 2 14 -1 6 -2 11 -11 9 -21z m228 9 c0 -10 -6 -12 -17 -8
-15 5 -16 4 -7 -8 18 -23 23 -69 8 -69 -9 0 -15 12 -15 33 -2 31 -2 30 -8 -7
-6 -38 -7 -39 -23 -22 -17 16 -19 16 -45 -8 -15 -15 -31 -26 -35 -26 -5 0 -8
20 -8 44 0 37 4 45 22 49 15 4 30 -1 43 -13 22 -21 37 -18 29 5 -3 8 7 20 23
29 35 19 33 19 33 1z m-75 -5 c3 -6 -1 -7 -9 -4 -18 7 -21 14 -7 14 6 0 13 -4
16 -10z m135 6 c0 -11 -19 -15 -25 -6 -3 5 1 10 9 10 9 0 16 -2 16 -4z m-335
-41 c0 -14 -3 -25 -7 -25 -4 0 -8 -7 -8 -15 0 -8 -5 -15 -10 -15 -7 0 -7 6 0
20 6 10 10 23 9 27 -1 4 -1 17 0 27 1 27 14 11 16 -19z m313 -9 c2 -10 0 -22
-6 -28 -6 -6 -11 1 -14 22 -5 32 14 38 20 6z m42 -6 c0 -16 -4 -30 -9 -30 -12
0 -24 37 -16 50 12 20 25 10 25 -20z m-692 6 c-7 -8 -15 -12 -17 -11 -5 6 10
25 20 25 5 0 4 -6 -3 -14z m434 -74 c10 -8 28 -12 43 -10 30 6 34 -7 3 -15
-13 -4 -33 2 -51 15 -22 16 -34 19 -46 11 -12 -7 -20 -6 -30 5 -12 12 -11 13
7 8 11 -4 23 -2 27 4 7 11 19 6 47 -18z m458 18 c0 -5 -2 -10 -4 -10 -3 0 -8
5 -11 10 -3 6 -1 10 4 10 6 0 11 -4 11 -10z m-330 -10 c11 -7 8 -8 -13 -6 -15
1 -30 6 -34 9 -10 11 30 8 47 -3z m40 0 c0 -5 -2 -10 -4 -10 -3 0 -8 5 -11 10
-3 6 -1 10 4 10 6 0 11 -4 11 -10z m80 0 c0 -5 -6 -10 -14 -10 -8 0 -18 5 -21
10 -3 6 3 10 14 10 12 0 21 -4 21 -10z m177 -6 c-3 -3 -12 -4 -19 -1 -8 3 -5
6 6 6 11 1 17 -2 13 -5z m-227 -28 c0 -11 -19 -15 -25 -6 -3 5 1 10 9 10 9 0
16 -2 16 -4z"/>
<path d="M1225 2150 c3 -5 8 -10 11 -10 2 0 4 5 4 10 0 6 -5 10 -11 10 -5 0
-7 -4 -4 -10z"/>
<path d="M1099 2032 c-8 -21 -2 -251 7 -261 3 -4 247 -1 251 3 1 1 5 53 8 116
4 63 8 117 10 120 2 4 -3 16 -11 28 -14 20 -23 21 -135 20 -118 -2 -121 -2
-130 -26z m149 -18 c-9 -9 -21 -13 -27 -10 -20 13 -11 26 16 26 25 0 26 -1 11
-16z m-83 -54 c-23 -25 -22 -76 2 -108 27 -37 92 -43 122 -11 31 34 36 74 13
113 -24 40 -14 71 12 35 9 -13 16 -29 16 -36 0 -7 4 -13 10 -13 19 0 2 -81
-22 -102 l-23 -21 28 7 c39 9 31 -15 -9 -26 -31 -9 -181 -5 -191 6 -3 3 -1 12
5 19 9 10 9 21 0 43 -14 39 -3 99 25 127 20 20 22 20 25 4 2 -10 -4 -27 -13
-37z m102 -37 c6 -33 7 -62 2 -67 -5 -6 -11 3 -15 22 -4 18 -11 32 -15 32 -5
0 -6 12 -3 28 6 26 6 26 -11 10 -15 -14 -16 -20 -6 -32 8 -10 9 -16 1 -21 -6
-3 -8 -11 -4 -16 3 -5 9 -7 14 -4 4 3 10 -4 13 -15 3 -13 0 -20 -9 -20 -8 0
-14 4 -14 10 0 5 -6 7 -14 4 -18 -7 -32 16 -16 26 7 4 9 16 6 28 -4 11 -3 23
3 26 5 3 7 15 4 26 -4 17 0 20 24 20 27 0 29 -3 40 -57z"/>
<path d="M790 1575 c0 -8 7 -15 16 -15 14 0 14 3 4 15 -7 8 -14 15 -16 15 -2
0 -4 -7 -4 -15z"/>
<path d="M1110 1501 c0 -24 19 -38 30 -21 4 6 11 11 16 11 5 -1 9 5 9 12 0 6
-12 13 -27 15 -22 3 -28 -1 -28 -17z"/>
<path d="M1220 1400 c0 -5 5 -10 10 -10 6 0 10 5 10 10 0 6 -4 10 -10 10 -5 0
-10 -4 -10 -10z"/>
<path d="M1117 1383 c-10 -9 -9 -25 1 -19 5 3 18 -2 28 -12 11 -9 30 -25 42
-36 l21 -19 -1 35 c-1 31 -4 34 -26 30 -16 -3 -28 1 -34 12 -10 17 -20 20 -31
9z"/>
<path d="M1545 1140 c3 -5 8 -10 11 -10 2 0 4 5 4 10 0 6 -5 10 -11 10 -5 0
-7 -4 -4 -10z"/>
<path d="M1130 855 c-18 -22 -5 -30 19 -13 12 8 18 18 14 21 -10 11 -19 8 -33
-8z"/>
<path d="M1045 800 c-3 -5 3 -10 14 -10 12 0 21 5 21 10 0 6 -6 10 -14 10 -8
0 -18 -4 -21 -10z"/>
<path d="M1300 360 c0 -5 5 -10 10 -10 6 0 10 5 10 10 0 6 -4 10 -10 10 -5 0
-10 -4 -10 -10z"/>
<path d="M1320 316 c0 -22 3 -27 11 -19 8 8 8 16 0 30 -9 16 -10 14 -11 -11z"/>
<path d="M1206 154 c-11 -27 -7 -37 9 -24 16 14 20 40 6 40 -5 0 -12 -7 -15
-16z"/>
</g>
</svg>
