<?xml version="1.0" encoding="utf-8"?><svg viewBox="0 0 215 215" xmlns="http://www.w3.org/2000/svg" xmlns:xlink="http://www.w3.org/1999/xlink"><style>:root>svg{display:none}:root>svg:target{display:block}</style><svg id="Ok" viewBox="0 0 215 215" xmlns="http://www.w3.org/2000/svg"><defs><style>.acls-2{fill:#fff}</style></defs><g id="aOk"><circle id="aBackground" cx="107.5" cy="107.5" r="107.5" fill="#ee8208"/><g id="aOk-2" data-name="Ok"><path id="aOk-3" data-name="Ok" class="acls-2" d="M938.45 664.9a29.82 29.82 0 10-29.81-29.82 29.86 29.86 0 0029.81 29.82m0-42.18a12.37 12.37 0 11-12.36 12.36 12.37 12.37 0 0112.36-12.36" transform="translate(-831 -554)"/><path id="aOk-4" data-name="Ok" class="acls-2" d="M950.54 689.17a55.77 55.77 0 0017.35-7.2 8.77 8.77 0 10-9.32-14.86 37.93 37.93 0 01-40.14 0A8.77 8.77 0 10909.1 682a55 55 0 0017.35 7.2l-16.7 16.7a8.74 8.74 0 000 12.37 9.07 9.07 0 006.18 2.59 8.5 8.5 0 006.19-2.59l16.43-16.43 16.45 16.4a8.75 8.75 0 0012.37-12.37z" transform="translate(-831 -554)"/></g></g></svg><svg viewBox="0 0 215 215" id="VK" xmlns="http://www.w3.org/2000/svg"><circle cx="107.5" cy="107.5" r="107.5" fill="#07f"/><path data-name="VK" d="M111.44 147.14C69.76 147.14 46 118.56 45 71h20.87c.69 34.9 16.08 49.69 28.27 52.74V71h19.67v30.1c12-1.29 24.69-15 28.95-30.1h19.67c-3.28 18.59-17 32.31-26.75 37.95A60.16 60.16 0 01167 147.14h-21.64c-4.65-14.48-16.24-25.68-31.55-27.2v27.2z" fill="#fff"/></svg><svg viewBox="0 0 215 215" id="YouTube" xmlns="http://www.w3.org/2000/svg"><circle cx="107.5" cy="107.5" r="107.5" fill="red"/><path data-name="YouTube" d="M160.53 80.18a13.94 13.94 0 00-9.85-9.85C142 68 107.15 68 107.15 68s-34.85 0-43.54 2.33a14 14 0 00-9.85 9.85C51.43 88.87 51.43 107 51.43 107s0 18.13 2.33 26.82a14 14 0 009.85 9.85C72.3 146 107.15 146 107.15 146s34.84 0 43.53-2.33a13.94 13.94 0 009.85-9.85c2.33-8.69 2.33-26.82 2.33-26.82s0-18.13-2.33-26.82zM96 123.71V90.29L125 107z" fill="#fff"/></svg></svg>