<?xml version="1.0" ?><!DOCTYPE svg  PUBLIC '-//W3C//DTD SVG 1.1//EN'  'http://www.w3.org/Graphics/SVG/1.1/DTD/svg11.dtd'><svg viewBox="0 0 512 512" xmlns="http://www.w3.org/2000/svg" xmlns:xlink="http://www.w3.org/1999/xlink"><style>:root>svg{display:none}:root>svg:target{display:block}</style><svg viewBox="0 0 512 512" id="ok1" xmlns="http://www.w3.org/2000/svg"><g fill="#ffc107"><path d="M256 255.996c65.789 0 119.301-53.648 119.301-119.627C375.301 70.397 321.789 16.75 256 16.75c-65.793 0-119.302 53.647-119.302 119.619 0 65.979 53.509 119.627 119.302 119.627zm0-179.439c32.896 0 59.648 26.827 59.648 59.812 0 32.986-26.752 59.816-59.648 59.816-32.898 0-59.654-26.83-59.654-59.816 0-32.985 26.756-59.812 59.654-59.812zm0 0"/><path d="M414.193 252.676c-11.662-11.696-30.516-11.696-42.174 0-63.945 64.116-168.037 64.116-232.011 0-11.658-11.696-30.512-11.696-42.174 0-11.662 11.69-11.662 30.596 0 42.319 37.102 37.199 84.134 58.407 132.632 63.932l-85.031 85.265c-11.658 11.694-11.658 30.592 0 42.286 11.664 11.696 30.51 11.696 42.173 0L256 417.906l68.391 68.571c5.818 5.832 13.447 8.769 21.084 8.769s15.268-2.937 21.084-8.769c11.662-11.694 11.662-30.592 0-42.286l-85.031-85.265c48.496-5.524 95.531-26.732 132.633-63.932 11.663-11.699 11.663-30.628.032-42.318zm0 0"/></g></svg><svg viewBox="0 0 100 100" id="vk1" xmlns="http://www.w3.org/2000/svg"><path d="M93.404 41.873c-.012-5.826.42-11.764.18-17.62-.117-2.899-.18-17.445-.18-17.445-2.975 0-7.061-.047-9.986.181-7.674.597-76.871-.039-76.871-.039-.003 3.819 0 17.323 0 21.158 0 8.002-.122 15.69-.182 23.633-.102 13.747.182 27.723.182 41.197l1.589.081c3.631-.428 6.285-.019 9.717-.081 6.002-.109 32.354.455 39.31.181 6.313-.248 33.289.092 35.878.017 0 0 .438-36.227.364-38.87-.118-4.183.007-8.256-.001-12.393zM79.827 68.449c-2.254 1.411-11.416 1.831-13.635.219-1.216-.884-2.327-1.99-3.385-3.042-.739-.736-1.578-1.093-2.212-1.892-.52-.654-.874-1.425-1.421-2.069-.921-1.083-2.339-2.004-3.462-.681-1.688 1.989.267 5.899-1.987 7.385-.755.499-1.518.643-2.462.572l-2.091.096c-1.228.024-3.175.035-4.572-.218-1.558-.281-2.846-1.132-4.255-1.758-2.676-1.187-5.226-2.803-7.164-5.043-5.279-6.1-12.371-14.49-15.126-22.16-.565-1.576-2.062-4.694-.644-6.048 1.929-1.401 11.399-1.797 12.877.371.6.88.979 2.171 1.402 3.169.528 1.245.814 2.418 1.641 3.521.732.977 1.271 1.96 1.838 3.032.634 1.202 1.234 2.356 2.006 3.464.524.753 1.91 2.25 2.785 2.362 2.138.273 2.005-4.922 1.847-6.19a24.527 24.527 0 01-.151-3.758c.034-1.057.13-2.547-.496-3.411-1.021-1.408-3.295-.354-3.473-2.246.377-.538.296-1.014 2.805-1.84 1.975-.65 3.251-.629 4.554-.525 2.655.213 5.472-.506 8.033.355 2.449.825 2.07 4.304 1.989 6.39-.11 2.848.007 5.625 0 8.515-.003 1.316-.057 2.596 1.548 2.489 1.504-.101 1.657-1.365 2.375-2.41.999-1.456 1.915-2.931 2.931-4.382 1.371-1.96 1.785-4.163 3.073-6.171.462-.719.858-2.289 1.569-2.856.537-.43 1.561-.246 2.211-.246h1.548c1.185.014 2.393.031 3.61.074 1.754.061 3.718-.32 5.457-.075 7.502 1.059-9.431 17.107-8.549 19.97.609 1.978 4.471 4.192 5.865 5.813 1.856 2.155 7.552 6.45 3.121 9.224z" fill="#4C75A3"/></svg><svg fill="none" viewBox="0 0 48 48" id="youtube1" xmlns="http://www.w3.org/2000/svg"><path d="M0 24C0 10.745 10.745 0 24 0s24 10.745 24 24-10.745 24-24 24S0 37.255 0 24z" fill="red"/><path d="M36.265 18.073c-.294-1.13-1.162-2.021-2.263-2.324C32.005 15.2 24 15.2 24 15.2s-8.005 0-10.002.55c-1.101.302-1.969 1.192-2.263 2.323-.535 2.05-.535 6.327-.535 6.327s0 4.277.535 6.327c.294 1.13 1.162 2.021 2.263 2.324C15.995 33.6 24 33.6 24 33.6s8.005 0 10.002-.55c1.101-.302 1.969-1.192 2.263-2.323.535-2.05.535-6.327.535-6.327s0-4.277-.535-6.327" fill="#fff"/><path d="M21.6 28.8v-8l6.4 4-6.4 4z" fill="red"/></svg></svg>