<?xml version="1.0" encoding="utf-8"?><svg viewBox="0 0 215 215" xmlns="http://www.w3.org/2000/svg" xmlns:xlink="http://www.w3.org/1999/xlink"><style>:root>svg{display:none}:root>svg:target{display:block}</style><svg id="Ok" viewBox="0 0 215 215" xmlns="http://www.w3.org/2000/svg"><defs><style>.acls-1{fill:#ee8208}.acls-2{fill:#fff}</style></defs><g id="aOk"><circle id="aBackground" class="acls-1" cx="107.5" cy="107.5" r="107.5"/><g id="aOk-2" data-name="Ok"><path id="aOk-3" data-name="Ok" class="acls-2" d="M938.45 664.9a29.82 29.82 0 10-29.81-29.82 29.86 29.86 0 0029.81 29.82m0-42.18a12.37 12.37 0 11-12.36 12.36 12.37 12.37 0 0112.36-12.36" transform="translate(-831 -554)"/><path id="aOk-4" data-name="Ok" class="acls-2" d="M950.54 689.17a55.77 55.77 0 0017.35-7.2 8.77 8.77 0 10-9.32-14.86 37.93 37.93 0 01-40.14 0A8.77 8.77 0 10909.1 682a55 55 0 0017.35 7.2l-16.7 16.7a8.74 8.74 0 000 12.37 9.07 9.07 0 006.18 2.59 8.5 8.5 0 006.19-2.59l16.43-16.43 16.45 16.4a8.75 8.75 0 0012.37-12.37z" transform="translate(-831 -554)"/></g></g></svg><svg id="Telegram" viewBox="0 0 215 215" xmlns="http://www.w3.org/2000/svg"><defs><linearGradient id="bБезымянный_градиент_2" y1="107.5" x2="215" y2="107.5" gradientUnits="userSpaceOnUse"><stop offset="0" stop-color="#2aabee"/><stop offset="1" stop-color="#229ed9"/></linearGradient><style>.bcls-1{fill:url(#bБезымянный_градиент_2)}.bcls-2{fill:#fff;fill-rule:evenodd}</style></defs><g id="bTelegram"><circle id="bBackground" class="bcls-1" cx="107.5" cy="107.5" r="107.5"/><path id="bTelegram-2" data-name="Telegram" class="bcls-2" d="M603.31 105.65q46.89-20.43 62.53-26.94c29.78-12.38 36-14.53 40-14.61a7.09 7.09 0 014.16 1.25 4.49 4.49 0 011.53 2.9 19.25 19.25 0 01.18 4.23c-1.61 17-8.6 58.09-12.15 77.08-1.5 8-4.46 10.73-7.33 11-6.22.57-11-4.12-17-8.07-9.44-6.19-14.77-10-23.93-16.08-10.59-7-3.72-10.81 2.31-17.07 1.58-1.64 29-26.6 29.54-28.86a2.18 2.18 0 00-.5-1.9 2.49 2.49 0 00-2.22-.21q-1.41.31-45.22 29.89-6.42 4.41-11.63 4.3c-3.83-.09-11.19-2.17-16.67-4-6.71-2.18-12-3.33-11.58-7q.37-2.88 7.98-5.91z" transform="translate(-554)"/></g></svg><svg id="VK" viewBox="0 0 215 215" xmlns="http://www.w3.org/2000/svg"><defs><style>.ccls-1{fill:#07f}.ccls-2{fill:#fff}</style></defs><g id="cVK"><circle id="cBackground" class="ccls-1" cx="107.5" cy="107.5" r="107.5"/><path id="cVK-2" data-name="VK" class="ccls-2" d="M111.44 147.14C69.76 147.14 46 118.56 45 71h20.87c.69 34.9 16.08 49.69 28.27 52.74V71h19.67v30.1c12-1.29 24.69-15 28.95-30.1h19.67c-3.28 18.59-17 32.31-26.75 37.95A60.16 60.16 0 01167 147.14h-21.64c-4.65-14.48-16.24-25.68-31.55-27.2v27.2z"/></g></svg><svg id="WhatsApp" viewBox="0 0 215 215" xmlns="http://www.w3.org/2000/svg"><defs><style>.dcls-1{fill:#25d366}.dcls-2,.dcls-3{fill:#fff}.dcls-3{fill-rule:evenodd}</style></defs><g id="dWhatsApp"><circle id="dBackground" class="dcls-1" cx="107.5" cy="107.5" r="107.5"/><g id="dWhatsApp-2" data-name="WhatsApp"><path id="dWhatsApp-3" data-name="WhatsApp" class="dcls-2" d="M885.91 161l7.55-27.56a53.18 53.18 0 1146.09 26.64 53.18 53.18 0 01-25.41-6.48zm29.5-17l1.62 1a44.21 44.21 0 0022.5 6.17 44.22 44.22 0 10-37.45-20.72l1 1.67-4.47 16.31z" transform="translate(-831)"/><path id="dWhatsApp-4" data-name="WhatsApp" class="dcls-3" d="M966.34 119.54c-.33-.56-1.22-.89-2.55-1.55s-7.86-3.88-9.08-4.33-2.1-.66-3 .67-3.43 4.32-4.2 5.21-1.56 1-2.88.33a36.31 36.31 0 01-10.63-6.59 40 40 0 01-7.39-9.21c-.78-1.33-.09-2 .58-2.71s1.33-1.56 2-2.33a8.84 8.84 0 001.33-2.22 2.47 2.47 0 00-.11-2.33c-.33-.66-3-7.2-4.1-9.86s-2.17-2.24-3-2.29-1.66 0-2.54 0a4.89 4.89 0 00-3.6 1.67 14.91 14.91 0 00-4.65 11c0 6.54 4.76 12.86 5.43 13.75s9.37 14.31 22.7 20.06a75.55 75.55 0 007.58 2.8 18.27 18.27 0 008.37.53c2.55-.38 7.86-3.22 9-6.32s1.07-5.73.74-6.28z" transform="translate(-831)"/></g></g></svg><svg id="Zen" viewBox="0 0 215 215" xmlns="http://www.w3.org/2000/svg"><defs><style>.ecls-1{fill:#fff;fill-rule:evenodd}</style></defs><g id="eДзен"><circle id="eBackground" cx="107.5" cy="107.5" r="107.5"/><path id="eДзен-2" data-name="Дзен" class="ecls-1" d="M382.38 871.83c-.34 27-2.18 42.16-12.29 52.29s-25.27 12-52.24 12.3v4c27 .34 42.12 2.18 52.24 12.3S382 978 382.38 1005h4c.33-27 2.17-42.16 12.29-52.29s25.27-12 52.24-12.3v-4c-27-.34-42.13-2.18-52.24-12.3s-12-25.3-12.29-52.29z" transform="translate(-277 -831)"/></g></svg></svg>